# xmcd CD database file
#
# Track frame offsets:
#	150
#	19698
#	41095
#	60068
#	82675
#	101090
#	121058
#	140499
#	160482
#	176051
#	189665
#	207272
#
# Disc length: 2986 seconds
#
# Revision: 8
# Processed by: cddbd v1.5.2PL0 Copyright (c) Steve Scherf et al.
# Submitted via: CDex 1.51
#
DISCID=980ba80c
DTITLE=Marcell and The Truth - Symbols
DYEAR=2009
DGENRE=Rhythmic Soul
TTITLE0=Can't Wait
TTITLE1=You Saved Me
TTITLE2=Just To Be Loved
TTITLE3=Greatest Love
TTITLE4=Symbols
TTITLE5=Seed You Water
TTITLE6=Whole Again
TTITLE7=Wish You Were Here
TTITLE8=All I Know
TTITLE9=It's Kinda Like
TTITLE10=Lost In The Moment
TTITLE11=Somewhere In Between
EXTD=YEAR: 2009
EXTT0=
EXTT1=
EXTT2=
EXTT3=
EXTT4=
EXTT5=
EXTT6=
EXTT7=
EXTT8=
EXTT9=
EXTT10=
EXTT11=
PLAYORDER=
